<svg width="306" height="103" fill="none" xmlns="http://www.w3.org/2000/svg"><path d="M9.445 68.234l.035-1.02c.258-7.007 2.028-13.628 5.31-19.862 3.023-5.696 6.831-10.301 11.425-13.817 4.547-3.469 8.976-5.203 13.289-5.203 3.281 0 5.871 1.137 7.77 3.41 1.617 1.969 2.425 4.383 2.425 7.242 0 3.422-1.254 6.797-3.761 10.125-1.454 1.922-3 3.305-4.641 4.149-.774.422-1.5.633-2.18.633a4.03 4.03 0 01-1.828-.422 5.634 5.634 0 01-1.477-1.055c-.867-.914-1.3-1.734-1.3-2.46 0-.727.187-1.231.562-1.513 3.844-2.765 6.457-5.613 7.84-8.543.54-1.125.809-2.226.809-3.304 0-2.274-1.078-3.41-3.235-3.41-3.375 0-6.855 1.84-10.441 5.52-3.352 3.398-6.164 7.663-8.438 12.796-2.367 5.273-3.62 10.113-3.761 14.52l-.035 1.336c0 5.273 1.113 8.73 3.34 10.37.796.587 1.745.88 2.847.88 1.125 0 2.18-.141 3.164-.422a17.13 17.13 0 002.953-1.16c1.594-.82 3.633-2.239 6.117-4.255.75-.585 1.371-.503 1.864.247.422.609.633 1.312.633 2.109 0 1.336-.188 2.25-.563 2.742-.352.469-.973 1.031-1.863 1.688-.867.656-1.934 1.265-3.2 1.828-2.953 1.312-5.847 1.969-8.683 1.969-2.836 0-5.121-.34-6.856-1.02-1.734-.703-3.199-1.7-4.394-2.988-2.485-2.719-3.727-6.422-3.727-11.11zm64.688 5.414c0 2.157.761 3.235 2.285 3.235 1.055 0 1.922-.164 2.601-.492.704-.329 1.172-.493 1.407-.493.492 0 .738.258.738.774 0 2.016-1.055 3.75-3.164 5.203-2.227 1.523-4.5 1.898-6.82 1.125-1.524-.54-2.649-1.7-3.375-3.48-.352-.914-.528-1.747-.528-2.497 0-1.218.117-2.507.352-3.867-2.18 4.453-4.887 7.524-8.121 9.211a8.942 8.942 0 01-4.114.985c-1.453 0-2.718-.293-3.796-.88-1.055-.609-1.957-1.44-2.707-2.495-1.524-2.204-2.215-4.97-2.075-8.297.141-4.172 1.371-8.262 3.692-12.27 2.133-3.75 4.828-6.808 8.086-9.176 3.258-2.414 6.304-3.62 9.14-3.62 2.836 0 5.122 1.3 6.856 3.902 1.617-2.602 3.047-3.903 4.289-3.903 1.336 0 2.344.246 3.023.739 1.29.937 1.746 1.757 1.371 2.46-5.882 12.047-8.906 19.547-9.07 22.5-.047.422-.07.868-.07 1.336zm-19.512.141c0 2.813.902 4.219 2.707 4.219 1.383 0 3.082-1.172 5.098-3.516 2.953-3.445 5.566-8.086 7.84-13.922a50.128 50.128 0 001.828-5.484c-.094-1.594-.762-2.766-2.004-3.516-.422-.258-1.055-.386-1.899-.386-.82 0-1.793.304-2.918.914-1.101.609-2.18 1.441-3.234 2.496-1.031 1.054-2.004 2.308-2.918 3.761a30.073 30.073 0 00-2.355 4.676c-1.43 3.61-2.145 7.196-2.145 10.758zm31.535 8.367a4.77 4.77 0 01-1.125-1.16c-.281-.445-.433-.82-.457-1.125-.023-.328.035-.715.176-1.16a49.15 49.15 0 01.633-1.688c4.781-11.765 7.172-19.664 7.172-23.695-.07-1.125-.457-1.922-1.16-2.39l-.704-.493c-.21-.164-.328-.445-.351-.843 0-.422.152-.82.457-1.196a4.2 4.2 0 011.195-.984c1.008-.54 2.04-.809 3.094-.809 1.078 0 1.91.117 2.496.352.61.234 1.125.55 1.547.95.891.843 1.336 1.733 1.336 2.67.023.938-.082 1.888-.317 2.849-.21.96-.468 1.91-.773 2.847-.305.914-.61 1.793-.914 2.637-.305.82-.504 1.43-.598 1.828-.187.82-.257 1.336-.21 1.547.562-.492.902-.973 1.019-1.441l1.371-2.602c3.047-5.484 6.023-9.117 8.93-10.898.843-.493 1.851-.739 3.023-.739 1.195 0 2.156.422 2.883 1.266.726.82 1.101 1.734 1.125 2.742.047 1.008-.024 1.852-.211 2.531a6.83 6.83 0 01-.773 1.864c-.774 1.312-1.711 1.968-2.813 1.968-.305 0-.586-.105-.844-.316L110.59 56c-.774-.68-1.524-1.02-2.25-1.02-.703 0-1.57.47-2.602 1.407-1.008.937-2.062 2.144-3.164 3.62-3.703 4.9-6.726 10.384-9.07 16.454l-1.547 4.078c-.398 1.008-.75 1.734-1.055 2.18-.304.422-.761.633-1.37.633A4.973 4.973 0 0187.737 83a6.01 6.01 0 01-1.582-.844zm48.235-43.77a6.99 6.99 0 01-1.758 1.337 6.455 6.455 0 01-2.074.633 3.942 3.942 0 01-2.075-.352 4.914 4.914 0 01-1.652-1.3c-1.008-1.173-1.512-2.356-1.512-3.552 0-1.195.188-2.086.563-2.672a4.92 4.92 0 011.476-1.476c1.125-.727 2.18-1.09 3.164-1.09 1.008 0 1.782.07 2.321.211a4.64 4.64 0 011.547.703c1.148.774 1.722 1.723 1.722 2.848 0 1.101-.164 2.027-.492 2.777a6.649 6.649 0 01-1.23 1.934zm-7.207 38.04c.609 0 .914.398.914 1.195 0 1.055-.481 2.145-1.442 3.27-1.406 1.64-3.293 2.46-5.66 2.46-2.719 0-4.582-1.101-5.59-3.304-.375-.774-.562-1.711-.562-2.813 0-1.101.187-2.32.562-3.656a57.09 57.09 0 011.442-4.254 104.03 104.03 0 011.898-4.535l1.863-4.43c1.36-3.304 2.039-5.484 2.039-6.539 0-1.054-.117-1.746-.351-2.074-.211-.352-.445-.621-.703-.809l-.703-.492c-.235-.164-.352-.445-.352-.843 0-.422.152-.82.457-1.196.328-.375.75-.703 1.266-.984 1.054-.54 2.285-.809 3.691-.809 3.445 0 5.168.903 5.168 2.707 0 2.11-.551 4.524-1.652 7.242-1.102 2.696-2.039 4.876-2.813 6.54l-2.109 4.851c-1.547 3.563-2.32 6.129-2.32 7.7 0 1.03.515 1.546 1.546 1.546 1.008 0 1.77-.129 2.286-.386.515-.258.89-.387 1.125-.387zm43.945-35.965c0-4.664-3.082-6.996-9.246-6.996-3.867 0-7.781 1.172-11.742 3.515-1.149.68-2.051 1.313-2.707 1.899-.633.562-1.243.844-1.829.844a3.605 3.605 0 01-1.687-.422 6.107 6.107 0 01-1.441-1.125c-1.547-1.711-1.383-3.364.492-4.957 2.812-2.414 7.476-3.973 13.992-4.676 1.312-.14 2.977-.211 4.992-.211 2.016 0 4.137.363 6.363 1.09 2.25.726 4.137 1.71 5.661 2.953 3.046 2.508 4.57 5.707 4.57 9.598 0 4.617-2.109 8.824-6.328 12.62-3.657 3.329-7.981 5.708-12.973 7.137 1.359 1.126 2.637 2.743 3.832 4.852l2.813 5.027c2.461 4.57 4.664 7.055 6.609 7.454a5.36 5.36 0 002.109-.07c.727-.165 1.196-.235 1.407-.212.234 0 .386.188.457.563.093.375 0 .844-.282 1.406-.281.563-.738 1.09-1.371 1.582-1.476 1.172-3.093 1.688-4.851 1.547-1.758-.117-3.188-.469-4.289-1.055a12.447 12.447 0 01-2.918-2.285 18.847 18.847 0 01-2.285-3.058 48.336 48.336 0 01-1.829-3.446l-1.582-3.445a43.475 43.475 0 00-1.371-2.883 62.246 62.246 0 01-1.09-2.215 11.2 11.2 0 00-1.019-1.828c-.797-1.219-1.816-1.992-3.059-2.32C145.605 74 140.602 81.219 135.516 83a3.562 3.562 0 01-1.301.246c-.422 0-.809-.082-1.16-.246a2.57 2.57 0 01-.879-.563c-.492-.445-.738-.937-.738-1.476 0-.54.175-.938.527-1.195 3.515-2.555 7.418-10.008 11.707-22.36l2.109-5.941c2.414-6.844 4.453-11.063 6.117-12.656.586-.446 1.196-.668 1.829-.668.632 0 1.183.105 1.652.316a4.31 4.31 0 011.23.738c.797.703 1.196 1.418 1.196 2.145 0 .726-.164 1.383-.493 1.969-.304.562-.656 1.359-1.054 2.39a283.86 283.86 0 00-2.672 7.207l-1.793 5.063c4.992-.657 9.41-2.614 13.254-5.871 4.055-3.422 6.082-7.301 6.082-11.637zm10.09 30.234a22.687 22.687 0 011.019-5.836 27.62 27.62 0 012.356-5.414 31.242 31.242 0 013.445-4.957 27.425 27.425 0 014.324-4.113c3.352-2.508 6.739-3.762 10.16-3.762 4.008 0 6.68 1.653 8.016 4.957.469 1.125.691 2.461.668 4.008-.023 1.524-.316 2.941-.879 4.254a12.503 12.503 0 01-2.355 3.55c-.985 1.056-2.168 2.005-3.551 2.849a23.855 23.855 0 01-4.465 2.144c-3.328 1.172-6.891 1.781-10.687 1.828-.094.328-.153.82-.176 1.477-.024.656.047 1.394.211 2.214.164.797.445 1.512.843 2.145.844 1.406 2.063 2.11 3.657 2.11 2.718 0 5.367-.797 7.945-2.391.914-.54 1.652-1.09 2.215-1.652.586-.587 1.09-.88 1.512-.88.421 0 .785.258 1.089.774.329.492.493 1.055.493 1.688 0 1.242-.352 2.32-1.055 3.234-2.953 2.953-7.348 4.43-13.184 4.43-3.445 0-6.211-1.032-8.297-3.094-2.343-2.344-3.445-5.531-3.304-9.563zM201.75 51.29c-2.461 0-4.828 1.688-7.102 5.063-1.921 2.906-3.468 6.351-4.64 10.336 3.914-.399 7.312-1.946 10.195-4.641 2.649-2.531 3.973-4.957 3.973-7.277 0-2.32-.809-3.48-2.426-3.48zm11.391 25.523c0-.726.152-1.394.457-2.003a5.506 5.506 0 011.195-1.582c.984-.915 2.016-1.371 3.094-1.371.937 0 1.406.48 1.406 1.44 0 2.438.809 4.138 2.426 5.098a3.503 3.503 0 001.828.528c.633 0 1.172-.07 1.617-.211.445-.14.856-.363 1.231-.668.843-.68 1.265-1.488 1.265-2.426 0-.937-.211-1.793-.633-2.566a20.694 20.694 0 00-1.582-2.496l-2.004-2.813c-2.812-3.75-4.218-7.207-4.218-10.37 0-2.626 1.113-5.005 3.339-7.138 2.532-2.414 5.778-3.62 9.739-3.62 3.469 0 6.176.855 8.121 2.566 1.594 1.383 2.39 2.965 2.39 4.746 0 1.851-.703 3.328-2.109 4.43-1.265.984-2.531 1.347-3.797 1.09-.562-.118-.996-.4-1.301-.844-.304-.47-.363-.996-.175-1.582a5.976 5.976 0 00.281-1.829 4.35 4.35 0 00-.352-1.757 4.088 4.088 0 00-.949-1.371c-.82-.774-1.687-1.16-2.601-1.16-.891 0-1.629.105-2.215.316a4.5 4.5 0 00-1.547.843c-.914.844-1.371 1.887-1.371 3.13 0 1.218.211 2.273.633 3.163.421.891.937 1.782 1.546 2.672a62.545 62.545 0 002.04 2.707 27.483 27.483 0 012.003 2.883c1.477 2.367 2.215 4.453 2.215 6.258 0 1.781-.375 3.281-1.125 4.5a11.071 11.071 0 01-2.918 3.094c-2.554 1.898-5.414 2.847-8.578 2.847-3.023 0-5.414-.726-7.172-2.18-1.453-1.218-2.179-2.66-2.179-4.323zm52.664-3.023c.679 0 1.019.457 1.019 1.371 0 .774-.234 1.524-.703 2.25-.633 1.36-1.898 2.649-3.797 3.867-2.156 1.383-4.324 2.075-6.504 2.075-3.773 0-6.164-1.688-7.172-5.063-1.195-4.008.598-12.504 5.379-25.488-2.695-.235-4.16-.703-4.394-1.407a2.08 2.08 0 01-.106-.667c0-.258.106-.551.317-.88a5.47 5.47 0 01.879-.949c.82-.68 1.652-1.02 2.496-1.02h2.777c2.531-5.929 4.336-9.304 5.414-10.124a2.861 2.861 0 011.723-.563c.633 0 1.16.082 1.582.246.422.165.797.399 1.125.704.75.703 1.125 1.488 1.125 2.355 0 .469-.141 1.008-.422 1.617l-2.602 5.66h.844c1.453 0 2.625-.011 3.516-.035l2.004-.035a32.84 32.84 0 011.652-.035c.68 0 1.02.246 1.02.738 0 3.094-3.657 4.64-10.969 4.64h-.281l-2.391 6.188c-2.695 7.313-4.043 12.434-4.043 15.364 0 .82.187 1.465.562 1.933.375.446 1.079.668 2.11.668s1.969-.176 2.812-.527a13.013 13.013 0 002.215-1.16 36.81 36.81 0 001.617-1.196c.469-.351.868-.527 1.196-.527zm8.683 6.82c-.984-.937-1.758-2.12-2.32-3.55-.563-1.453-.856-3.165-.879-5.133a23.947 23.947 0 01.703-5.977 30.61 30.61 0 012.145-5.836 30.804 30.804 0 013.34-5.273 25.74 25.74 0 014.324-4.29c3.422-2.624 6.972-3.937 10.652-3.937 4.828 0 8.098 2.121 9.809 6.364 1.218 3.07 1.289 6.785.211 11.144-.985 4.008-2.789 7.688-5.414 11.04-2.602 3.35-5.672 5.73-9.211 7.136-1.782.703-3.539 1.055-5.274 1.055-1.711 0-3.246-.223-4.605-.668a9.196 9.196 0 01-3.481-2.075zm6.715-17.05a35.397 35.397 0 00-1.687 5.343c-.399 1.829-.586 3.563-.563 5.204.024 1.617.27 2.894.738 3.832.493.914 1.278 1.37 2.356 1.37 1.078 0 2.133-.363 3.164-1.09 1.055-.75 2.074-1.734 3.059-2.952.984-1.22 1.91-2.625 2.777-4.22a40.177 40.177 0 002.285-4.991c1.43-3.774 2.121-7.125 2.074-10.055 0-2.578-.527-4.219-1.582-4.922-.422-.281-1.019-.422-1.793-.422-.75 0-1.617.352-2.601 1.055-.985.68-1.969 1.605-2.953 2.777-.985 1.172-1.934 2.543-2.848 4.114a38.848 38.848 0 00-2.426 4.957z" fill="#c3aa70"/><path d="M30.205 5.236a8.509 8.509 0 00-3.599 3.193 10.28 10.28 0 00-8.013.324 10.28 10.28 0 00-5.355 5.97 8.501 8.501 0 00-4.753.738 8.548 8.548 0 108.39 14.84l4.365 9.27 19.42-9.143-4.365-9.27A8.547 8.547 0 0041.577 9.33a8.546 8.546 0 00-11.372-4.093z" fill="#c3aa70"/></svg>